<svg width="354" height="204" viewBox="0 0 354 204" fill="none" xmlns="http://www.w3.org/2000/svg">
<g clip-path="url(#clip0_5091_19272)">
<path fill-rule="evenodd" clip-rule="evenodd" d="M197.237 177.403C197.107 177.404 196.983 177.457 196.891 177.55C196.8 177.644 196.749 177.769 196.749 177.9V202.705C196.749 202.836 196.8 202.961 196.891 203.054C196.983 203.148 197.107 203.201 197.237 203.202H199.354C199.484 203.201 199.608 203.148 199.699 203.054C199.79 202.961 199.841 202.836 199.841 202.705V195.91H203.576L212.496 203.064C212.581 203.135 212.689 203.174 212.799 203.172H216.195C216.297 203.172 216.396 203.139 216.479 203.079C216.562 203.019 216.625 202.934 216.658 202.837C216.691 202.739 216.694 202.634 216.665 202.535C216.637 202.436 216.578 202.349 216.498 202.285L208.559 195.904C210.852 195.795 213.022 194.826 214.643 193.187C216.339 191.445 217.289 189.101 217.289 186.659C217.289 184.218 216.339 181.874 214.643 180.131C212.939 178.405 210.629 177.427 208.214 177.409L197.237 177.403ZM199.841 192.755V180.515H208.167C208.954 180.516 209.733 180.675 210.458 180.984C211.183 181.293 211.84 181.745 212.389 182.314C212.957 182.872 213.408 183.54 213.715 184.278C214.021 185.016 214.177 185.808 214.173 186.608C214.18 187.415 214.026 188.214 213.719 188.96C213.413 189.705 212.96 190.38 212.389 190.944C211.84 191.514 211.184 191.966 210.459 192.275C209.733 192.584 208.954 192.743 208.167 192.743L199.841 192.755Z" fill="#0A3647"/>
<path fill-rule="evenodd" clip-rule="evenodd" d="M183.369 190.434C181.787 193.391 178.219 195.658 173.123 195.7C173.077 195.706 173.031 195.706 172.986 195.7H164.726C165.016 196.044 165.325 196.37 165.653 196.677C167.799 198.682 170.581 199.851 173.503 199.976H173.789C173.997 199.976 174.193 199.976 174.425 199.976C175 199.972 175.574 199.932 176.143 199.856C176.927 199.758 177.701 199.591 178.457 199.358L179.004 199.16L179.093 199.124C179.254 199.058 179.474 198.968 179.902 198.818C180.017 198.779 180.143 198.786 180.254 198.837C180.364 198.888 180.451 198.98 180.497 199.094L181.299 201.055C181.347 201.179 181.347 201.316 181.299 201.439C181.275 201.5 181.238 201.555 181.192 201.601C181.146 201.647 181.092 201.684 181.032 201.709L180.437 201.949L180.039 202.111C179.914 202.159 179.801 202.195 179.7 202.225C179.593 202.261 179.509 202.285 179.444 202.315H179.408C178.472 202.616 177.511 202.833 176.536 202.962C175.787 203.061 175.032 203.111 174.276 203.112H173.955H173.646H173.36C169.713 202.928 166.242 201.477 163.536 199.004C162.344 197.892 161.388 196.549 160.723 195.054C160.059 193.56 159.701 191.946 159.671 190.308C159.671 190.224 159.671 190.135 159.671 190.063C159.671 189.985 159.671 189.913 159.671 189.853V189.805V189.619C159.779 187.946 160.217 186.313 160.96 184.813C161.702 183.314 162.734 181.979 163.994 180.887C166.623 178.621 169.974 177.388 173.432 177.414C178.338 177.414 181.799 179.771 183.369 182.776C183.954 183.964 184.263 185.27 184.273 186.596V186.704C184.267 188.005 183.949 189.285 183.345 190.434H183.369ZM166.04 183.238C168.096 181.447 170.733 180.478 173.45 180.515C177.25 180.515 179.599 182.152 180.615 184.185C181.012 184.921 181.217 185.747 181.21 186.584C181.216 187.408 181.011 188.22 180.615 188.941C179.593 190.92 177.101 192.539 172.629 192.539H163.061C162.861 191.805 162.761 191.046 162.763 190.284V189.775C162.84 188.515 163.17 187.285 163.734 186.158C164.297 185.031 165.082 184.031 166.04 183.22V183.238Z" fill="#0A3647"/>
<path fill-rule="evenodd" clip-rule="evenodd" d="M130.603 177.403C130.472 177.403 130.347 177.455 130.254 177.548C130.161 177.642 130.109 177.768 130.109 177.9V180.047C130.111 180.178 130.164 180.303 130.256 180.395C130.348 180.487 130.473 180.539 130.603 180.539H140.938C139.411 182.158 138.548 184.301 138.524 186.536V202.705C138.524 202.837 138.576 202.963 138.669 203.057C138.761 203.15 138.887 203.202 139.018 203.202H141.153C141.283 203.202 141.409 203.15 141.502 203.057C141.594 202.963 141.646 202.837 141.646 202.705V186.512C141.651 185.719 141.825 184.936 142.156 184.217C142.488 183.498 142.969 182.859 143.567 182.344C144.871 181.161 146.57 180.519 148.324 180.545H151.298C151.428 180.545 151.552 180.493 151.645 180.401C151.737 180.309 151.79 180.184 151.791 180.053V177.906C151.791 177.774 151.739 177.648 151.647 177.554C151.554 177.461 151.429 177.409 151.298 177.409L130.603 177.403Z" fill="#0A3647"/>
<path fill-rule="evenodd" clip-rule="evenodd" d="M99.6918 177.403C99.5609 177.403 99.4354 177.455 99.3428 177.548C99.2502 177.642 99.1982 177.768 99.1982 177.9V202.705C99.1982 202.837 99.2502 202.963 99.3428 203.057C99.4354 203.15 99.5609 203.202 99.6918 203.202H101.803C101.932 203.199 102.054 203.145 102.144 203.052C102.234 202.959 102.285 202.835 102.285 202.705V195.91H106.013L114.933 203.064C115.021 203.135 115.13 203.173 115.243 203.172H118.638C118.741 203.172 118.84 203.139 118.923 203.079C119.006 203.019 119.069 202.934 119.102 202.837C119.134 202.739 119.135 202.634 119.106 202.536C119.078 202.437 119.02 202.35 118.942 202.285L111.003 195.904C113.294 195.796 115.462 194.826 117.08 193.187C118.776 191.445 119.726 189.101 119.726 186.659C119.726 184.218 118.776 181.874 117.08 180.131C115.378 178.407 113.07 177.429 110.658 177.409L99.6918 177.403ZM102.297 192.755V180.515H110.622C111.409 180.516 112.188 180.675 112.913 180.984C113.639 181.293 114.295 181.745 114.844 182.314C115.413 182.872 115.864 183.54 116.171 184.278C116.477 185.016 116.633 185.808 116.628 186.608C116.635 187.415 116.481 188.214 116.174 188.96C115.868 189.705 115.415 190.38 114.844 190.944C114.295 191.513 113.639 191.965 112.913 192.274C112.188 192.583 111.409 192.743 110.622 192.743L102.297 192.755Z" fill="#0A3647"/>
<path fill-rule="evenodd" clip-rule="evenodd" d="M70.3623 177.403C70.2324 177.404 70.1084 177.457 70.0171 177.55C69.9258 177.644 69.8747 177.769 69.8747 177.9V180.047C69.8747 180.178 69.926 180.303 70.0175 180.395C70.1089 180.487 70.233 180.539 70.3623 180.539H77.3081C79.0041 180.517 80.6518 181.109 81.9526 182.206C82.6473 182.767 83.1844 183.501 83.5106 184.335H78.0515C77.8315 184.335 77.5817 184.335 77.326 184.365H77.2308C73.6271 184.497 70.8618 185.565 69.0362 187.208C68.1375 187.994 67.4161 188.964 66.9207 190.054C66.4252 191.145 66.1672 192.33 66.1639 193.529C66.157 193.649 66.157 193.769 66.1639 193.889C66.3244 198.297 69.3097 201.211 72.7886 202.447C74.157 202.92 75.5938 203.161 77.0405 203.16C78.4628 203.156 79.8727 202.894 81.2033 202.387C81.9392 202.09 82.646 201.725 83.3144 201.295L83.6831 201.049V202.705C83.6831 202.836 83.7343 202.961 83.8255 203.054C83.9168 203.148 84.0408 203.201 84.1707 203.202H86.2878C86.356 203.208 86.4247 203.2 86.4895 203.177C86.5542 203.155 86.6137 203.119 86.664 203.072C86.7144 203.025 86.7545 202.969 86.7819 202.905C86.8092 202.842 86.8232 202.774 86.823 202.705V185.811C86.8064 184.661 86.542 183.53 86.048 182.494C85.5541 181.458 84.8424 180.544 83.9626 179.813C82.0899 178.259 79.7392 177.411 77.3141 177.415L70.3623 177.403ZM69.2562 193.181C69.262 193.139 69.262 193.097 69.2562 193.055C69.313 192.387 69.5036 191.738 69.8164 191.146C70.1291 190.554 70.5576 190.033 71.0759 189.613C72.3961 188.449 74.4061 187.628 77.3438 187.502H78.4202C78.4636 187.508 78.5076 187.508 78.551 187.502H83.7247V194.309C83.7624 195.487 83.411 196.645 82.7257 197.601C82.0628 198.466 81.1667 199.12 80.1448 199.484C79.1555 199.868 78.1064 200.071 77.0465 200.084C75.9511 200.082 74.8638 199.895 73.8293 199.532C71.2662 198.645 69.393 196.755 69.274 193.829L69.2562 193.181Z" fill="#0A3647"/>
<path fill-rule="evenodd" clip-rule="evenodd" d="M51.3088 177.403C51.1779 177.403 51.0523 177.455 50.9597 177.548C50.8672 177.642 50.8152 177.768 50.8152 177.9V193.559C48.8454 191.894 46.3559 190.985 43.7861 190.992H37.4647V177.918C37.4647 177.786 37.4127 177.66 37.3201 177.566C37.2275 177.473 37.102 177.421 36.9711 177.421H34.8421C34.7123 177.422 34.5882 177.475 34.497 177.568C34.4057 177.662 34.3545 177.787 34.3545 177.918V202.705C34.3545 202.836 34.4057 202.961 34.497 203.054C34.5882 203.148 34.7123 203.201 34.8421 203.202H36.9413C37.0086 203.206 37.076 203.197 37.1394 203.173C37.2027 203.15 37.2607 203.114 37.3097 203.068C37.3588 203.021 37.3978 202.965 37.4245 202.902C37.4511 202.84 37.4648 202.773 37.4647 202.705V194.111H43.7861C45.6382 194.084 47.4353 194.746 48.8349 195.97C49.6276 196.602 50.2224 197.452 50.5476 198.417C50.7898 199.354 50.888 200.322 50.839 201.289V202.705C50.839 202.837 50.891 202.963 50.9835 203.057C51.0761 203.15 51.2016 203.202 51.3326 203.202H53.4496C53.5795 203.201 53.7035 203.148 53.7948 203.054C53.8861 202.961 53.9373 202.836 53.9372 202.705V177.9C53.9373 177.769 53.8861 177.644 53.7948 177.55C53.7035 177.457 53.5795 177.404 53.4496 177.403H51.3088Z" fill="#0A3647"/>
<path fill-rule="evenodd" clip-rule="evenodd" d="M13.267 176.545C11.4909 176.534 9.73223 176.9 8.10524 177.618C6.52511 178.315 5.0934 179.313 3.88897 180.557C2.67454 181.8 1.70403 183.263 1.02857 184.869C0.338401 186.541 -0.01146 188.336 -0.000226082 190.146C-0.00981004 191.966 0.337816 193.77 1.02262 195.454C1.7112 197.053 2.68019 198.514 3.88302 199.766C5.09881 200.989 6.53089 201.971 8.10524 202.663C9.7313 203.384 11.4906 203.75 13.267 203.736C15.3841 203.764 17.4741 203.255 19.3447 202.255C20.7664 201.504 22.0434 200.503 23.1149 199.298C23.1937 199.203 23.2518 199.092 23.2857 198.972C23.3196 198.853 23.3284 198.728 23.3116 198.605C23.2948 198.482 23.2528 198.364 23.1882 198.258C23.1236 198.152 23.0379 198.061 22.9365 197.991L21.9493 197.241C21.7112 197.08 21.4222 197.014 21.1386 197.056C20.8549 197.098 20.597 197.246 20.4151 197.469C19.7254 198.239 18.9233 198.898 18.0364 199.424L17.8817 199.514C16.589 200.238 15.1468 200.647 13.6697 200.711C12.1925 200.774 10.721 200.49 9.3719 199.88C8.1988 199.327 7.14115 198.554 6.25579 197.601C5.36224 196.623 4.65289 195.489 4.16252 194.255C3.11591 191.615 3.11591 188.672 4.16252 186.032C4.66326 184.796 5.38262 183.663 6.28552 182.686C7.16869 181.735 8.22446 180.963 9.39569 180.413C10.6115 179.849 11.9349 179.561 13.273 179.567C14.9009 179.551 16.5024 179.982 17.9055 180.815C18.8484 181.342 19.6999 182.021 20.427 182.824C20.6134 183.041 20.8707 183.183 21.1522 183.225C21.4337 183.267 21.7208 183.205 21.9612 183.052L22.9425 182.314C23.0438 182.244 23.1296 182.153 23.1941 182.047C23.2587 181.941 23.3008 181.823 23.3175 181.7C23.3343 181.577 23.3255 181.452 23.2916 181.333C23.2578 181.213 23.1996 181.102 23.1209 181.007C22.0458 179.806 20.7696 178.805 19.3506 178.05C17.4794 177.043 15.3878 176.526 13.267 176.545Z" fill="#0A3647"/>
<path fill-rule="evenodd" clip-rule="evenodd" d="M289.144 177.403C289.015 177.404 288.89 177.457 288.799 177.55C288.708 177.644 288.657 177.769 288.657 177.9V202.705C288.657 202.836 288.708 202.961 288.799 203.054C288.89 203.148 289.015 203.201 289.144 203.202H291.261C291.326 203.202 291.39 203.189 291.449 203.164C291.509 203.139 291.563 203.103 291.608 203.056C291.654 203.01 291.689 202.955 291.714 202.895C291.738 202.834 291.75 202.77 291.749 202.705V177.9C291.75 177.835 291.738 177.771 291.714 177.71C291.689 177.65 291.654 177.595 291.608 177.549C291.563 177.502 291.509 177.466 291.449 177.441C291.39 177.415 291.326 177.403 291.261 177.403H289.144Z" fill="#0A3647"/>
<path fill-rule="evenodd" clip-rule="evenodd" d="M313.877 176.545C312.101 176.535 310.342 176.9 308.715 177.618C307.135 178.315 305.703 179.313 304.499 180.557C303.284 181.8 302.314 183.263 301.638 184.869C300.95 186.541 300.602 188.336 300.616 190.147C300.606 191.966 300.954 193.77 301.638 195.454C302.327 197.055 303.298 198.516 304.505 199.766C305.718 200.99 307.148 201.972 308.721 202.663C310.51 203.434 312.445 203.798 314.389 203.727C316.333 203.657 318.238 203.154 319.966 202.255C321.388 201.504 322.665 200.503 323.737 199.298C323.815 199.203 323.874 199.092 323.907 198.972C323.941 198.853 323.95 198.728 323.933 198.605C323.917 198.482 323.875 198.364 323.81 198.258C323.745 198.152 323.66 198.061 323.558 197.991L322.571 197.241C322.334 197.081 322.046 197.015 321.763 197.057C321.481 197.099 321.224 197.246 321.043 197.469C320.35 198.236 319.549 198.895 318.664 199.424L318.504 199.514C317.211 200.238 315.769 200.647 314.291 200.711C312.814 200.774 311.343 200.49 309.994 199.88C308.821 199.327 307.763 198.554 306.878 197.601C305.973 196.625 305.254 195.491 304.755 194.255C303.708 191.615 303.708 188.672 304.755 186.032C305.255 184.796 305.975 183.663 306.878 182.686C307.761 181.735 308.817 180.963 309.988 180.413C311.204 179.849 312.527 179.561 313.865 179.568C315.493 179.551 317.094 179.982 318.498 180.815C319.44 181.342 320.292 182.021 321.019 182.824C321.205 183.041 321.463 183.183 321.744 183.225C322.026 183.267 322.313 183.205 322.553 183.052L323.54 182.296C323.642 182.226 323.728 182.135 323.792 182.029C323.857 181.923 323.899 181.805 323.916 181.682C323.932 181.559 323.923 181.434 323.89 181.315C323.856 181.195 323.798 181.084 323.719 180.989C322.644 179.788 321.368 178.787 319.949 178.032C318.079 177.035 315.992 176.524 313.877 176.545Z" fill="#0A3647"/>
<path fill-rule="evenodd" clip-rule="evenodd" d="M240.422 176.545C238.646 176.535 236.888 176.9 235.261 177.618C233.68 178.315 232.249 179.313 231.044 180.557C229.83 181.8 228.859 183.263 228.184 184.869C227.496 186.541 227.148 188.336 227.161 190.147C227.148 191.967 227.496 193.771 228.184 195.454C228.872 197.053 229.841 198.514 231.044 199.766C232.257 200.99 233.687 201.972 235.261 202.663C237.049 203.434 238.984 203.798 240.928 203.727C242.872 203.657 244.777 203.154 246.506 202.255C247.928 201.504 249.205 200.503 250.276 199.298C250.355 199.203 250.413 199.092 250.447 198.972C250.481 198.853 250.49 198.728 250.473 198.605C250.456 198.482 250.414 198.364 250.349 198.258C250.285 198.152 250.199 198.061 250.098 197.991L249.111 197.241C248.873 197.081 248.585 197.015 248.303 197.057C248.02 197.099 247.763 197.246 247.582 197.469C246.891 198.237 246.089 198.896 245.204 199.424L245.049 199.514C243.756 200.238 242.314 200.647 240.837 200.711C239.36 200.774 237.888 200.49 236.539 199.88C235.366 199.327 234.308 198.554 233.423 197.601C232.519 196.625 231.799 195.491 231.3 194.255C230.253 191.615 230.253 188.672 231.3 186.032C231.801 184.796 232.52 183.663 233.423 182.686C234.306 181.735 235.362 180.963 236.533 180.413C237.749 179.849 239.072 179.561 240.41 179.568C242.038 179.551 243.64 179.982 245.043 180.815C245.986 181.342 246.837 182.021 247.564 182.824C247.751 183.041 248.008 183.183 248.29 183.225C248.571 183.267 248.858 183.205 249.099 183.052L250.086 182.296C250.187 182.226 250.273 182.135 250.338 182.029C250.402 181.923 250.444 181.805 250.461 181.682C250.478 181.559 250.469 181.434 250.435 181.315C250.401 181.195 250.343 181.084 250.264 180.989C249.189 179.788 247.913 178.787 246.494 178.032C244.624 177.035 242.537 176.524 240.422 176.545Z" fill="#0A3647"/>
<path fill-rule="evenodd" clip-rule="evenodd" d="M260.261 177.403C260.196 177.403 260.132 177.415 260.073 177.441C260.013 177.466 259.959 177.502 259.914 177.549C259.869 177.595 259.833 177.65 259.809 177.71C259.784 177.771 259.772 177.835 259.773 177.9V193.223C259.765 193.329 259.765 193.435 259.773 193.541C259.772 194.758 260.012 195.962 260.477 197.084C260.943 198.207 261.625 199.224 262.485 200.078C264.239 201.835 266.939 203.022 270.418 203.172H277.417C277.548 203.172 277.674 203.12 277.766 203.027C277.859 202.933 277.911 202.807 277.911 202.675V200.534C277.911 200.402 277.859 200.275 277.766 200.182C277.674 200.088 277.548 200.036 277.417 200.036H270.489C267.736 199.928 265.851 199.064 264.602 197.835C264.037 197.276 263.59 196.607 263.289 195.869C262.987 195.131 262.837 194.339 262.848 193.541V177.9C262.848 177.769 262.797 177.644 262.705 177.55C262.614 177.457 262.49 177.404 262.36 177.403H260.261Z" fill="#0A3647"/>
<path fill-rule="evenodd" clip-rule="evenodd" d="M333.204 177.403C333.109 177.403 333.019 177.44 332.952 177.508C332.885 177.575 332.847 177.667 332.847 177.762V202.813C332.847 202.86 332.856 202.907 332.874 202.95C332.892 202.994 332.919 203.034 332.952 203.067C332.985 203.1 333.024 203.127 333.067 203.145C333.111 203.163 333.157 203.172 333.204 203.172H335.345C335.438 203.171 335.528 203.132 335.593 203.065C335.659 202.998 335.696 202.907 335.696 202.813V195.454C337.058 195.304 338.394 194.971 339.668 194.465L350.039 203.088C350.102 203.142 350.182 203.172 350.265 203.172H353.643C353.716 203.172 353.787 203.149 353.847 203.106C353.906 203.063 353.951 203.003 353.976 202.934C354 202.865 354.003 202.789 353.984 202.718C353.965 202.647 353.925 202.584 353.869 202.537L342.493 193.067C343.571 192.382 344.581 191.593 345.508 190.71C348.309 188.06 350.86 184.065 352.953 177.882C352.971 177.828 352.976 177.771 352.967 177.715C352.959 177.659 352.938 177.605 352.906 177.558C352.873 177.513 352.83 177.476 352.78 177.45C352.731 177.424 352.676 177.41 352.62 177.409H350.354C350.281 177.408 350.209 177.431 350.15 177.474C350.09 177.517 350.045 177.578 350.021 177.648C348.202 182.914 345.978 186.32 343.569 188.599C341.433 190.734 338.673 192.12 335.696 192.551V177.762C335.696 177.668 335.659 177.577 335.593 177.51C335.528 177.443 335.438 177.404 335.345 177.403H333.204Z" fill="#0A3647"/>
<path fill-rule="evenodd" clip-rule="evenodd" d="M243.884 27.4251C243.994 27.4351 244.097 27.4849 244.173 27.5654C244.25 27.6459 244.295 27.7515 244.3 27.8629V27.9469C244.437 29.1463 246.024 43.2816 231.58 56.7873C221.161 66.8625 200.532 70.5808 200.323 70.5808C200.213 70.5694 200.11 70.5183 200.034 70.4369C199.957 70.3554 199.912 70.249 199.907 70.137C199.907 69.9211 196.785 59.1862 176.78 59.1862C156.775 59.1862 153.665 70.167 153.665 70.167C153.66 70.279 153.615 70.3854 153.539 70.4669C153.462 70.5483 153.359 70.5994 153.249 70.6108C153.041 70.6108 132.435 66.8805 121.992 56.8173C107.958 43.3176 109.552 29.2302 109.695 27.9768C109.696 27.9489 109.696 27.9208 109.695 27.8929C109.7 27.7815 109.745 27.6759 109.821 27.5954C109.898 27.5149 110.001 27.4651 110.111 27.4551C110.319 27.4551 110.527 27.4551 110.527 27.671C110.527 27.671 113.447 32.7146 122.421 32.7146C122.872 32.7042 123.323 32.6662 123.771 32.6007C124.22 32.54 124.673 32.5039 125.126 32.4927C134.504 31.6171 141.183 26.7954 144.085 18.4713C147.213 9.47555 148.67 6.41699 154.712 2.91464C158.666 0.689683 163.251 0.251889 166.373 0.251889C167.217 0.245648 168.059 0.319945 168.889 0.473784C169.048 0.496951 169.194 0.57294 169.305 0.689683V1.12748C169.305 1.12748 166.593 6.6089 168.056 11.8684C169.097 15.3708 172.011 19.095 177.012 19.095C182.013 19.095 184.933 15.3708 185.974 11.8984C187.639 6.63888 184.725 1.15746 184.725 1.15746V0.689683C184.836 0.57294 184.983 0.496951 185.141 0.473784C185.141 0.251889 186.182 0.251889 187.639 0.251889C190.975 0.251889 195.56 0.689683 199.307 2.88465C205.348 6.6089 206.811 9.48154 209.933 18.4413C212.853 26.5495 219.52 31.5871 228.892 32.4627C229.785 32.6384 230.694 32.7128 231.604 32.6846C240.357 32.6846 243.497 27.641 243.497 27.641C243.467 27.4251 243.675 27.4251 243.884 27.4251ZM222.63 90.4494C224.206 90.7308 225.705 91.3468 227.028 92.2567C228.351 93.1665 229.466 94.3494 230.301 95.727C232.168 98.6836 232.585 102.27 231.336 106.702C229.266 114.3 221.179 117.047 216.201 117.047C215.867 117.036 215.535 116.996 215.208 116.927C214.989 116.878 214.766 116.848 214.542 116.837C211.224 115.991 206.865 114.09 201.459 110.504L201.15 110.306C198.058 108.339 196.833 107.559 195.025 107.967C193.217 108.375 191.915 109.868 191.088 111.979C189.637 114.936 189.429 119.176 190.672 121.479C192.747 125.677 197.1 126.546 200.002 123.59C201.87 121.689 201.251 118.732 199.592 116.837C198.844 116.042 198.001 115.343 197.082 114.756C196.196 114.156 195.536 113.695 195.649 113.245C196.066 111.35 203.321 113.671 205.396 115.782C209.755 119.98 210.582 124.01 207.68 129.287C205.604 133.299 200.419 136.04 194.597 136.04C191.487 136.04 188.579 135.41 186.711 133.929C180.283 129.497 177.381 123.164 178.005 114.738C178.207 111.643 179.593 109.76 180.818 108.099L180.907 107.979C182.15 106.294 183.191 104.819 182.983 102.492C182.775 99.7511 181.115 98.2937 178.005 98.2937H176.756C175.722 98.5036 175.097 99.7691 174.895 102.492C174.765 104.691 174.809 106.897 175.026 109.089C175.026 109.484 175.073 109.892 175.097 110.288C175.21 111.05 175.258 111.817 175.311 112.609C175.365 113.401 175.412 114.114 175.513 114.93C176.138 123.158 173.236 129.491 166.807 134.121C164.418 135.533 161.691 136.26 158.922 136.226C153.326 136.226 148.14 133.695 145.839 129.473C142.937 124.196 144.388 118.078 148.123 115.332C149.99 114.066 151.857 112.801 153.927 112.591H154.438C155.328 112.47 156.234 112.622 157.037 113.029C158.078 113.455 158.494 114.72 156.442 114.93C155.818 114.93 153.124 115.14 152.279 119.128C151.685 122.924 154.355 125.881 157.673 125.671C159.749 125.671 161.836 124.825 162.651 121.473C163.172 119.395 163.172 117.218 162.651 115.14C162.234 113.029 161.616 110.498 160.575 109.233C160.332 108.923 160.014 108.683 159.651 108.535C159.288 108.387 158.894 108.336 158.506 108.387C157.257 108.387 155.39 108.807 152.071 110.918C146.683 114.516 142.323 116.627 138.988 117.251C138.456 117.437 137.891 117.509 137.329 117.461C132.352 117.461 124.246 114.72 122.195 107.122C121.154 103.319 121.57 99.7331 123.438 96.7765C124.359 95.2403 125.594 93.9192 127.06 92.9007C128.526 91.8823 130.19 91.1898 131.941 90.8692C132.617 90.6957 133.315 90.625 134.011 90.6593C135.055 90.6184 136.096 90.8045 137.062 91.2049C138.029 91.6054 138.899 92.2108 139.613 92.9802C140.19 93.547 140.623 94.2458 140.876 95.0172C141.128 95.7887 141.193 96.6102 141.064 97.4122C140.856 100.153 138.78 101.418 137.745 101.418C137.604 101.433 137.461 101.42 137.323 101.382C137.248 101.335 137.179 101.276 137.121 101.208C136.711 100.789 136.919 100.153 137.329 99.5232C137.377 99.3852 137.43 99.2353 137.49 99.0854C137.692 98.5396 137.906 97.9519 137.745 97.6221C137.44 97.1834 137.037 96.8219 136.57 96.566C136.103 96.3101 135.583 96.1666 135.052 96.1468C134.011 96.1468 133.184 96.7465 132.352 97.832C131.944 98.4412 131.661 99.1262 131.519 99.847C131.377 100.568 131.379 101.31 131.525 102.03C131.898 103.547 132.775 104.889 134.011 105.832C134.593 106.116 135.232 106.26 135.878 106.252C138.37 106.252 142.099 104.987 143.555 103.505C143.663 103.404 143.778 103.312 143.9 103.229C144.146 103.063 144.377 102.874 144.59 102.666C144.917 102.33 145.298 101.964 145.72 101.562C147.521 99.915 149.156 98.0931 150.602 96.1228C147.648 94.1163 144.873 91.8549 142.307 89.3639C139.613 86.6232 137.745 84.7221 136.294 83.0369C135.843 82.5751 135.444 82.1493 135.069 81.7595C134.33 80.8873 133.487 80.1098 132.56 79.4446C130.693 78.1792 129.242 77.5495 127.999 77.5495C127.624 77.5483 127.255 77.6448 126.927 77.8298C126.6 78.0147 126.326 78.2817 126.131 78.605C124.68 80.5001 126.964 82.6111 126.964 82.6111C127.172 82.821 127.374 83.0369 127.172 83.2468C126.964 83.6666 126.34 83.6666 125.923 83.6666C124.264 83.6666 122.195 82.4012 121.761 79.0248C121.653 77.9959 121.764 76.9558 122.086 75.9735C122.408 74.9912 122.934 74.0892 123.628 73.3275C124.425 72.3967 125.412 71.6505 126.521 71.1402C127.631 70.6299 128.837 70.3675 130.056 70.3709H130.883C134.826 70.7907 139.803 73.3275 146.023 77.7594C148.925 79.6545 151.833 81.5556 154.527 82.6111V82.4012C154.498 80.1074 154.275 77.8202 153.861 75.5644L153.772 75.0187C153.647 74.8928 153.677 74.8388 153.719 74.7728C153.752 74.7211 153.771 74.6608 153.772 74.5989C153.98 74.389 153.98 74.389 154.188 74.389C154.836 74.2809 155.437 73.9825 155.918 73.5313C156.398 73.0801 156.736 72.496 156.888 71.8522V71.8102C157.394 70.7727 160.867 63.6241 176.982 63.6241C193.098 63.6241 196.523 70.6468 197.065 71.7802C197.074 71.8054 197.086 71.8295 197.1 71.8522C197.201 72.4508 197.469 73.0079 197.874 73.4574C198.279 73.907 198.803 74.2303 199.384 74.389C199.8 74.389 199.8 74.8088 199.8 74.9887C199.215 77.4904 198.798 80.029 198.551 82.5871H198.759C199.918 82.8444 201.099 82.987 202.286 83.0129C203.933 83.0574 205.567 82.6951 207.043 81.9574C209.119 80.9019 209.119 78.581 209.119 76.2541C209.119 74.5689 209.119 73.0876 209.945 72.0561C211.194 70.155 213.68 69.0995 216.172 69.0995C217.002 69.1179 217.827 69.2285 218.634 69.4293L219.074 69.5193C222.6 70.5748 226.127 73.5314 225.086 77.3156C224.259 80.4821 221.768 80.692 221.149 80.692C221.149 80.692 219.692 80.692 219.49 80.0923C219.476 79.9779 219.487 79.8618 219.522 79.7521C219.557 79.6424 219.615 79.5416 219.692 79.4566C219.9 79.4566 221.768 78.1912 220.941 76.2901C220.675 75.9395 220.327 75.6601 219.929 75.4761C219.531 75.2921 219.095 75.2092 218.657 75.2346C218.269 75.1961 217.878 75.2529 217.517 75.4002C217.155 75.5474 216.835 75.7808 216.582 76.0802C215.987 76.506 215.755 77.3456 215.987 78.4011C217.646 92.5424 209.351 94.6535 207.692 94.8634C205.694 95.1126 203.685 95.2547 201.673 95.2892C203.559 97.8558 205.876 100.07 208.518 101.832C209.109 102.201 209.665 102.624 210.177 103.097C211.628 104.573 215.363 105.844 217.855 105.844C218.5 105.852 219.137 105.706 219.716 105.418C220.965 104.789 221.791 103.307 222.208 101.622C222.488 100.167 222.189 98.6589 221.375 97.4242C220.548 96.1588 219.716 95.523 218.889 95.523C217.855 95.523 217.23 96.3687 216.814 97.2143C216.606 97.9002 216.606 98.6333 216.814 99.3193C216.805 99.425 216.805 99.5314 216.814 99.6371C216.859 99.8033 216.861 99.9783 216.819 100.145C216.777 100.312 216.694 100.466 216.576 100.591C216.368 100.801 216.166 100.801 215.749 100.801C214.918 100.702 214.148 100.308 213.579 99.6891C213.009 99.0705 212.676 98.2677 212.639 97.4242C212.575 96.6251 212.67 95.8212 212.92 95.06C213.169 94.2988 213.567 93.5957 214.09 92.9922C214.915 92.111 215.912 91.4118 217.019 90.9391C218.125 90.4663 219.317 90.2301 220.519 90.2455C221.229 90.1946 221.942 90.2635 222.63 90.4494Z" fill="#0A3647"/>
</g>
<defs>
<clipPath id="clip0_5091_19272">
<rect width="354" height="204" fill="white"/>
</clipPath>
</defs>
</svg>
