<svg width="19" height="19" viewBox="0 0 19 19" fill="none" xmlns="http://www.w3.org/2000/svg">
<path d="M15.5 4.25H13.1225L11.75 2.75H7.25L5.8775 4.25H3.5C2.675 4.25 2 4.925 2 5.75V14.75C2 15.575 2.675 16.25 3.5 16.25H15.5C16.325 16.25 17 15.575 17 14.75V5.75C17 4.925 16.325 4.25 15.5 4.25ZM15.5 14.75H3.5V5.75H6.5375L7.91 4.25H11.09L12.4625 5.75H15.5V14.75ZM9.5 6.5C7.43 6.5 5.75 8.18 5.75 10.25C5.75 12.32 7.43 14 9.5 14C11.57 14 13.25 12.32 13.25 10.25C13.25 8.18 11.57 6.5 9.5 6.5ZM9.5 12.5C8.2625 12.5 7.25 11.4875 7.25 10.25C7.25 9.0125 8.2625 8 9.5 8C10.7375 8 11.75 9.0125 11.75 10.25C11.75 11.4875 10.7375 12.5 9.5 12.5Z" fill="#90BFDB"/>
</svg>
