<svg width="18" height="19" viewBox="0 0 18 19" fill="none" xmlns="http://www.w3.org/2000/svg">
<g clip-path="url(#clip0_2003_102139)">
<path d="M11.0475 6.275C10.9786 6.20458 10.9242 6.12127 10.8874 6.02982C10.8507 5.93838 10.8323 5.84059 10.8333 5.74204C10.8344 5.6435 10.8548 5.54612 10.8935 5.45548C10.9322 5.36483 10.9883 5.28269 11.0588 5.21375C11.1292 5.14481 11.2125 5.09041 11.3039 5.05366C11.3954 5.01691 11.4932 4.99854 11.5917 4.99958C11.6903 5.00063 11.7876 5.02107 11.8783 5.05975C11.9689 5.09843 12.0511 5.15458 12.12 5.225L13.5 6.63575V1.25C13.5 1.05109 13.579 0.860322 13.7197 0.71967C13.8603 0.579018 14.0511 0.5 14.25 0.5C14.4489 0.5 14.6397 0.579018 14.7803 0.71967C14.921 0.860322 15 1.05109 15 1.25V6.63575L16.38 5.225C16.5192 5.08278 16.7093 5.00169 16.9083 4.99958C17.1073 4.99747 17.299 5.07451 17.4412 5.21375C17.5835 5.35299 17.6646 5.54302 17.6667 5.74204C17.6688 5.94107 17.5917 6.13278 17.4525 6.275L15.5662 8.2025C15.2199 8.55051 14.75 8.74734 14.259 8.75C14.2543 8.75114 14.2494 8.75114 14.2448 8.75C14.0023 8.75007 13.7622 8.70227 13.5383 8.60935C13.3143 8.51642 13.1109 8.3802 12.9398 8.2085L11.0475 6.275ZM17.25 8.75C17.0511 8.75 16.8603 8.82902 16.7197 8.96967C16.579 9.11032 16.5 9.30109 16.5 9.5V14.75C16.5 15.3467 16.2629 15.919 15.841 16.341C15.419 16.7629 14.8467 17 14.25 17H3.75C3.15326 17 2.58097 16.7629 2.15901 16.341C1.73705 15.919 1.5 15.3467 1.5 14.75V7.30325L6.34875 12.152C7.05308 12.8492 8.00368 13.2409 8.99471 13.2423C9.98575 13.2437 10.9374 12.8547 11.6437 12.1595L13.0553 10.7878C13.127 10.7194 13.1845 10.6375 13.2244 10.5467C13.2644 10.456 13.2859 10.3582 13.2878 10.2591C13.2897 10.16 13.2719 10.0615 13.2355 9.9693C13.1991 9.87709 13.1448 9.79302 13.0757 9.72194C13.0066 9.65086 12.9241 9.59419 12.833 9.55519C12.7418 9.5162 12.6439 9.49565 12.5448 9.49475C12.4456 9.49385 12.3473 9.51261 12.2555 9.54994C12.1636 9.58727 12.0801 9.64244 12.0098 9.71225L10.5907 11.0915C10.162 11.5002 9.59236 11.7282 9 11.7282C8.40764 11.7282 7.83801 11.5002 7.40925 11.0915L1.77075 5.45C1.96035 5.0889 2.24483 4.78635 2.59359 4.57491C2.94234 4.36346 3.34216 4.25113 3.75 4.25H9C9.19891 4.25 9.38968 4.17098 9.53033 4.03033C9.67098 3.88968 9.75 3.69891 9.75 3.5C9.75 3.30109 9.67098 3.11032 9.53033 2.96967C9.38968 2.82902 9.19891 2.75 9 2.75H3.75C2.7558 2.75119 1.80267 3.14666 1.09966 3.84966C0.396661 4.55267 0.00119089 5.5058 0 6.5L0 14.75C0.00119089 15.7442 0.396661 16.6973 1.09966 17.4003C1.80267 18.1033 2.7558 18.4988 3.75 18.5H14.25C15.2442 18.4988 16.1973 18.1033 16.9003 17.4003C17.6033 16.6973 17.9988 15.7442 18 14.75V9.5C18 9.30109 17.921 9.11032 17.7803 8.96967C17.6397 8.82902 17.4489 8.75 17.25 8.75Z" fill="#90BFDB"/>
</g>
<defs>
<clipPath id="clip0_2003_102139">
<rect width="18" height="18" fill="white" transform="translate(0 0.5)"/>
</clipPath>
</defs>
</svg>
