<svg width="18" height="18" viewBox="0 0 18 18" fill="none" xmlns="http://www.w3.org/2000/svg">
<path d="M17.25 8.25C17.0511 8.25 16.8603 8.32902 16.7197 8.46967C16.579 8.61032 16.5 8.80109 16.5 9V14.25C16.5 14.8467 16.2629 15.419 15.841 15.841C15.419 16.2629 14.8467 16.5 14.25 16.5H3.75C3.15326 16.5 2.58097 16.2629 2.15901 15.841C1.73705 15.419 1.5 14.8467 1.5 14.25V6.80325L6.34875 11.652C7.05308 12.3492 8.00368 12.7409 8.99471 12.7423C9.98575 12.7437 10.9374 12.3547 11.6437 11.6595L13.0553 10.2878C13.127 10.2194 13.1845 10.1375 13.2244 10.0467C13.2644 9.95598 13.2859 9.85822 13.2878 9.75911C13.2897 9.66 13.2719 9.5615 13.2355 9.4693C13.1991 9.37709 13.1448 9.29302 13.0757 9.22194C13.0066 9.15087 12.9241 9.09419 12.833 9.05519C12.7418 9.0162 12.6439 8.99565 12.5448 8.99475C12.4456 8.99385 12.3473 9.01261 12.2555 9.04994C12.1636 9.08727 12.0801 9.14244 12.0098 9.21225L10.5907 10.5915C10.162 11.0002 9.59236 11.2282 9 11.2282C8.40764 11.2282 7.83801 11.0002 7.40925 10.5915L1.77075 4.95C1.96035 4.5889 2.24483 4.28635 2.59359 4.07491C2.94234 3.86346 3.34216 3.75113 3.75 3.75H9C9.19891 3.75 9.38968 3.67098 9.53033 3.53033C9.67098 3.38968 9.75 3.19891 9.75 3C9.75 2.80109 9.67098 2.61032 9.53033 2.46967C9.38968 2.32902 9.19891 2.25 9 2.25H3.75C2.7558 2.25119 1.80267 2.64666 1.09966 3.34966C0.396661 4.05267 0.00119089 5.0058 0 6L0 14.25C0.00119089 15.2442 0.396661 16.1973 1.09966 16.9003C1.80267 17.6033 2.7558 17.9988 3.75 18H14.25C15.2442 17.9988 16.1973 17.6033 16.9003 16.9003C17.6033 16.1973 17.9988 15.2442 18 14.25V9C18 8.80109 17.921 8.61032 17.7803 8.46967C17.6397 8.32902 17.4489 8.25 17.25 8.25Z" fill="#90BFDB"/>
<path d="M17.6193 2.47585C17.6882 2.54628 17.7426 2.62959 17.7794 2.72103C17.8161 2.81248 17.8345 2.91026 17.8335 3.00881C17.8324 3.10736 17.812 3.20473 17.7733 3.29538C17.7346 3.38602 17.6785 3.46816 17.608 3.5371C17.5376 3.60605 17.4543 3.66045 17.3629 3.69719C17.2714 3.73394 17.1736 3.75232 17.0751 3.75127C16.9765 3.75023 16.8792 3.72978 16.7885 3.69111C16.6979 3.65243 16.6157 3.59628 16.5468 3.52585L15.1668 2.1151V7.50085C15.1668 7.69977 15.0878 7.89053 14.9471 8.03118C14.8065 8.17184 14.6157 8.25085 14.4168 8.25085C14.2179 8.25085 14.0271 8.17184 13.8865 8.03118C13.7458 7.89053 13.6668 7.69977 13.6668 7.50085V2.1151L12.2868 3.52585C12.1475 3.66808 11.9575 3.74916 11.7585 3.75127C11.5595 3.75338 11.3678 3.67634 11.2255 3.5371C11.0833 3.39787 11.0022 3.20783 11.0001 3.00881C10.998 2.80979 11.075 2.61808 11.2143 2.47585L13.1005 0.548354C13.4469 0.200347 13.9168 0.00351906 14.4078 0.000854492C14.4125 -0.000289917 14.4174 -0.000289917 14.422 0.000854492C14.6645 0.000785828 14.9046 0.048584 15.1285 0.141507C15.3525 0.23443 15.5559 0.370651 15.727 0.542355L17.6193 2.47585Z" fill="#90BFDB"/>
</svg>
