<svg width="251" height="20" viewBox="0 0 251 20" fill="none" xmlns="http://www.w3.org/2000/svg">
<path fill-rule="evenodd" clip-rule="evenodd" d="M139.628 1.09998C139.436 1.09998 139.281 1.25533 139.281 1.44697V18.753C139.281 18.9446 139.436 19.1 139.628 19.1H141.126C141.317 19.1 141.473 18.9446 141.473 18.753V14.0277H144.114L150.413 19.0248C150.474 19.0735 150.55 19.1 150.628 19.1H153.032C153.18 19.1 153.311 19.0066 153.36 18.8672C153.408 18.7278 153.364 18.5729 153.248 18.4811L147.628 14.0228C149.282 13.9564 150.829 13.2278 151.931 12.1263L151.932 12.1249C153.076 10.9673 153.807 9.31994 153.807 7.55127C153.807 5.80702 153.076 4.15982 151.932 3.00285L151.931 3.00143C150.775 1.84527 149.127 1.09998 147.381 1.09998H139.628ZM141.473 11.8234V3.29172H147.381C148.553 3.29172 149.587 3.76617 150.37 4.54939L150.372 4.5512C151.162 5.32956 151.615 6.3734 151.615 7.55127C151.615 8.75387 151.162 9.78628 150.37 10.5783C149.589 11.3598 148.556 11.8234 147.381 11.8234H141.473Z" fill="white"/>
<path fill-rule="evenodd" clip-rule="evenodd" d="M129.809 10.2023C128.69 12.2674 126.165 13.8529 122.555 13.88C122.525 13.8884 122.494 13.8929 122.461 13.8929H116.606C116.786 14.1008 117.012 14.3405 117.264 14.5752L117.267 14.5784C118.636 15.8866 120.577 16.7488 122.824 16.8846H123.002C123.011 16.8846 123.02 16.885 123.029 16.8856C123.177 16.897 123.315 16.8972 123.48 16.8972C123.887 16.8972 124.286 16.8613 124.695 16.8118C125.264 16.7391 125.793 16.6309 126.333 16.464C126.463 16.4126 126.612 16.3628 126.719 16.3271C126.739 16.319 126.76 16.3103 126.783 16.3009C126.895 16.2548 127.051 16.1906 127.354 16.086C127.527 16.0262 127.717 16.1119 127.787 16.2815L128.353 17.6524C128.389 17.7381 128.388 17.8343 128.352 17.9196C128.316 18.0049 128.248 18.0723 128.162 18.1067C127.995 18.1734 127.864 18.2281 127.757 18.2726C127.637 18.3227 127.547 18.36 127.472 18.3873L127.47 18.388C127.383 18.4193 127.301 18.4449 127.231 18.4666L127.212 18.4726C127.135 18.4966 127.078 18.5149 127.03 18.5343C127.022 18.5376 127.013 18.5406 127.005 18.5432C126.346 18.7499 125.672 18.9056 124.971 18.9965L124.969 18.9967C124.454 19.0611 123.898 19.1 123.367 19.1C123.29 19.1 123.211 19.0966 123.141 19.0935L123.138 19.0934C123.064 19.0901 122.999 19.0874 122.939 19.0874C122.932 19.0874 122.925 19.0872 122.917 19.0867L122.717 19.0742C119.973 18.906 117.507 17.8189 115.76 16.1894L115.757 16.1869C114.089 14.597 113.021 12.4346 113.021 10.1126C113.021 10.0535 113.024 9.99275 113.027 9.94206L113.028 9.93398C113.031 9.87791 113.034 9.8308 113.034 9.78554C113.034 9.77506 113.034 9.76458 113.035 9.75415L113.047 9.6218C113.18 7.26073 114.333 5.05183 116.109 3.5239C117.821 2.03469 120.191 1.09998 122.788 1.09998C126.261 1.09998 128.713 2.74383 129.824 4.84407L129.828 4.85297C130.24 5.68931 130.468 6.60932 130.468 7.52161V7.59707C130.468 8.48495 130.239 9.39616 129.81 10.2003L129.809 10.2023ZM117.544 5.18005C118.901 4.0031 120.694 3.29018 122.788 3.29018C125.477 3.29018 127.14 4.43384 127.862 5.85495L127.865 5.86072C128.154 6.40351 128.29 6.95151 128.29 7.52161C128.29 8.10416 128.154 8.6385 127.867 9.16718L127.864 9.17167C127.139 10.5535 125.376 11.6901 122.21 11.6901H115.434C115.309 11.2454 115.224 10.6971 115.224 10.1126V9.75819C115.334 7.95049 116.166 6.36678 117.543 5.18087L117.544 5.18005Z" fill="white"/>
<path fill-rule="evenodd" clip-rule="evenodd" d="M92.4557 1.09998C92.2624 1.09998 92.1057 1.25533 92.1057 1.44697V2.94472C92.1057 3.13636 92.2624 3.29172 92.4557 3.29172H99.758C98.7115 4.40392 98.0471 5.887 98.0471 7.47575V18.753C98.0471 18.9446 98.2038 19.1 98.3971 19.1H99.9078C100.101 19.1 100.258 18.9446 100.258 18.753V7.47575C100.258 6.33805 100.754 5.33352 101.615 4.56142L101.617 4.55953C102.491 3.76346 103.65 3.29172 104.999 3.29172H107.106C107.299 3.29172 107.456 3.13636 107.456 2.94472V1.44697C107.456 1.25533 107.299 1.09998 107.106 1.09998H92.4557Z" fill="white"/>
<path fill-rule="evenodd" clip-rule="evenodd" d="M70.5726 1.09998C70.3809 1.09998 70.2256 1.25533 70.2256 1.44697V18.753C70.2256 18.9446 70.3809 19.1 70.5726 19.1H72.0703C72.262 19.1 72.4173 18.9446 72.4173 18.753V14.0277H75.0582L81.3572 19.0248C81.4186 19.0735 81.4946 19.1 81.5729 19.1H83.9768C84.1244 19.1 84.2559 19.0066 84.3045 18.8672C84.3531 18.7278 84.3081 18.5729 84.1925 18.4811L78.5725 14.0228C80.2265 13.9564 81.7739 13.2278 82.8755 12.1263L82.8769 12.1249C84.0211 10.9673 84.7517 9.31994 84.7517 7.55127C84.7517 5.80702 84.0205 4.15982 82.8769 3.00285L82.8755 3.00143C81.7193 1.84527 80.0718 1.09998 78.3256 1.09998H70.5726ZM72.4173 11.8234V3.29172H78.3256C79.498 3.29172 80.5317 3.76617 81.3149 4.54939L81.3167 4.5512C82.1067 5.32956 82.56 6.3734 82.56 7.55127C82.56 8.75387 82.107 9.78628 81.3149 10.5783C80.5335 11.3598 79.5003 11.8234 78.3256 11.8234H72.4173Z" fill="white"/>
<path fill-rule="evenodd" clip-rule="evenodd" d="M49.8122 1.09998C49.6206 1.09998 49.4652 1.25533 49.4652 1.44697V2.94472C49.4652 3.13636 49.6206 3.29172 49.8122 3.29172H54.7208C55.9895 3.29172 57.1421 3.71824 58.0074 4.45497L58.0102 4.45732C58.5658 4.92035 58.9461 5.46686 59.1161 5.94566H55.2494C55.0942 5.94566 54.9191 5.95613 54.7378 5.96696L54.6667 5.97119C52.1161 6.06211 50.1597 6.82399 48.8664 7.95712C47.5052 9.14502 46.8347 10.7642 46.8347 12.3718C46.8347 12.4232 46.8347 12.5111 46.848 12.6254C46.9613 15.7036 49.0757 17.7388 51.5348 18.6021L51.5374 18.603C52.4932 18.9303 53.5381 19.1 54.5446 19.1L54.5491 19.0999C55.5515 19.0869 56.5884 18.9179 57.5029 18.5601C58.055 18.3432 58.5819 18.0617 58.9979 17.7964C59.0893 17.738 59.1761 17.6801 59.2572 17.6232V18.753C59.2572 18.9446 59.4126 19.1 59.6042 19.1H61.102C61.2936 19.1 61.449 18.9446 61.449 18.753V6.97231C61.449 5.28235 60.6244 3.79306 59.4258 2.78072C58.19 1.73102 56.4608 1.09998 54.7208 1.09998H49.8122ZM49.0264 12.1201C49.0264 12.0901 49.0227 12.0611 49.0155 12.0334C49.0439 11.2906 49.436 10.3697 50.3023 9.62714L50.305 9.62482C51.236 8.81021 52.6608 8.23679 54.7406 8.14999H55.5011C55.5333 8.14999 55.5645 8.1456 55.5941 8.1374H59.2572V12.8878C59.2572 13.8455 58.9912 14.6016 58.5524 15.1876C58.1116 15.7764 57.4812 16.2133 56.7238 16.5032C56.05 16.7633 55.3109 16.8959 54.5294 16.9082C53.7515 16.9079 52.985 16.7762 52.2536 16.5244C50.4394 15.9037 49.1101 14.5848 49.0264 12.541V12.1201Z" fill="white"/>
<path fill-rule="evenodd" clip-rule="evenodd" d="M36.3216 1.09998C36.1299 1.09998 35.9746 1.25533 35.9746 1.44697V12.3835C34.6815 11.2884 32.9034 10.59 30.9976 10.59H26.499V1.45955C26.499 1.26792 26.3436 1.11256 26.152 1.11256H24.6668C24.4752 1.11256 24.3198 1.26792 24.3198 1.45955V18.753C24.3198 18.9446 24.4752 19.1 24.6668 19.1H26.152C26.3436 19.1 26.499 18.9446 26.499 18.753V12.7691H30.9976C32.4126 12.7691 33.6399 13.2555 34.5698 14.0675C35.2472 14.6616 35.5878 15.2077 35.7672 15.7768C35.9508 16.359 35.9746 16.9895 35.9746 17.7838V18.753C35.9746 18.9446 36.1299 19.1 36.3216 19.1H37.8193C38.011 19.1 38.1663 18.9446 38.1663 18.753V1.44697C38.1663 1.25533 38.011 1.09998 37.8193 1.09998H36.3216Z" fill="white"/>
<path fill-rule="evenodd" clip-rule="evenodd" d="M9.39291 0.5C8.09396 0.5 6.87674 0.750881 5.73815 1.25117C4.59399 1.75391 3.5996 2.4374 2.7525 3.3018L2.75022 3.3041C1.90407 4.15029 1.22869 5.15381 0.725337 6.31632C0.242542 7.45485 0 8.68171 0 10C0 11.3175 0.242242 12.5532 0.725106 13.7099L0.725859 13.7116C1.22895 14.8556 1.90403 15.8588 2.75112 16.7236C3.59809 17.5702 4.5934 18.2458 5.73815 18.7488C6.87674 19.2491 8.09396 19.5 9.39291 19.5C10.9716 19.5 12.4042 19.1535 13.6966 18.4642L13.6983 18.4633C14.7268 17.922 15.6159 17.234 16.3675 16.3993C16.6004 16.1408 16.5573 15.7197 16.2432 15.485L15.5406 14.9601C15.2305 14.7284 14.7575 14.7905 14.4584 15.12C13.9754 15.652 13.4165 16.1068 12.783 16.4843C12.7466 16.506 12.7099 16.5275 12.673 16.5487L12.6712 16.5496C11.6784 17.1116 10.5836 17.3912 9.39291 17.3912C8.42354 17.3912 7.50684 17.1952 6.64604 16.8022L6.64351 16.801C5.80665 16.4104 5.07111 15.8798 4.43858 15.21C3.80588 14.5401 3.3048 13.7597 2.93474 12.8716C2.56186 11.9767 2.37648 11.0185 2.37648 10C2.37648 8.9815 2.56186 8.02332 2.93474 7.1284C3.3048 6.24026 3.80588 5.4599 4.43858 4.78998C5.07017 4.12124 5.80445 3.59114 6.63976 3.20073L6.64378 3.19885L6.6462 3.19773C7.50696 2.80481 8.4236 2.6088 9.39291 2.6088C10.584 2.6088 11.6789 2.8976 12.6713 3.47716L12.6731 3.47817C13.3511 3.85534 13.946 4.32273 14.4562 4.88029C14.7574 5.20954 15.2307 5.27143 15.5406 5.03995L16.2432 4.51499C16.5573 4.28035 16.6004 3.8592 16.3675 3.60066C15.6158 2.76592 14.7266 2.07791 13.698 1.53653L13.6965 1.53571C12.4042 0.846496 10.9716 0.5 9.39291 0.5Z" fill="white"/>
<path fill-rule="evenodd" clip-rule="evenodd" d="M204.691 1.09998C204.5 1.09998 204.344 1.25533 204.344 1.44697V18.753C204.344 18.9446 204.5 19.1 204.691 19.1H206.189C206.381 19.1 206.536 18.9446 206.536 18.753V1.44697C206.536 1.25533 206.381 1.09998 206.189 1.09998H204.691Z" fill="white"/>
<path fill-rule="evenodd" clip-rule="evenodd" d="M222.2 0.5C220.901 0.5 219.684 0.750881 218.545 1.25117C217.401 1.75391 216.407 2.4374 215.56 3.3018L215.557 3.3041C214.711 4.15029 214.036 5.15381 213.532 6.31632C213.05 7.45485 212.807 8.68171 212.807 10C212.807 11.3175 213.049 12.5532 213.532 13.7099L213.533 13.7116C214.036 14.8556 214.711 15.8588 215.558 16.7236L215.559 16.7243C216.406 17.5709 217.401 18.2458 218.545 18.7488C219.684 19.2491 220.901 19.5 222.2 19.5C223.779 19.5 225.211 19.1535 226.504 18.4642L226.505 18.4633C227.534 17.922 228.423 17.234 229.175 16.3993C229.407 16.1408 229.364 15.7197 229.05 15.485L228.348 14.9601C228.038 14.7284 227.565 14.7905 227.266 15.12C226.783 15.652 226.224 16.1068 225.59 16.4843C225.554 16.506 225.517 16.5275 225.48 16.5487L225.478 16.5496C224.486 17.1116 223.391 17.3912 222.2 17.3912C221.231 17.3912 220.314 17.1952 219.453 16.8022L219.451 16.801C218.614 16.4104 217.878 15.8798 217.246 15.21C216.613 14.5401 216.112 13.7597 215.742 12.8716C215.369 11.9767 215.184 11.0185 215.184 10C215.184 8.9815 215.369 8.02332 215.742 7.1284C216.112 6.24026 216.613 5.4599 217.246 4.78998C217.877 4.12124 218.612 3.59114 219.447 3.20073L219.451 3.19885L219.453 3.19773C220.314 2.80481 221.231 2.6088 222.2 2.6088C223.391 2.6088 224.486 2.8976 225.478 3.47716L225.48 3.47817C226.158 3.85534 226.753 4.32273 227.263 4.88029C227.565 5.20954 228.038 5.27143 228.348 5.03995L229.05 4.51499C229.364 4.28035 229.407 3.8592 229.175 3.60066C228.423 2.76592 227.534 2.07791 226.505 1.53653L226.504 1.53571C225.211 0.846496 223.779 0.5 222.2 0.5Z" fill="white"/>
<path fill-rule="evenodd" clip-rule="evenodd" d="M170.2 0.5C168.901 0.5 167.684 0.750881 166.545 1.25117C165.401 1.75391 164.407 2.4374 163.56 3.3018L163.557 3.3041C162.711 4.15029 162.036 5.15381 161.532 6.31632C161.05 7.45485 160.807 8.68171 160.807 10C160.807 11.3175 161.049 12.5532 161.532 13.7099L161.533 13.7116C162.036 14.8556 162.711 15.8588 163.558 16.7236L163.559 16.7243C164.406 17.5709 165.401 18.2458 166.545 18.7488C167.684 19.2491 168.901 19.5 170.2 19.5C171.779 19.5 173.211 19.1535 174.504 18.4642L174.505 18.4633C175.534 17.922 176.423 17.234 177.175 16.3993C177.407 16.1408 177.364 15.7197 177.05 15.485L176.348 14.9601C176.038 14.7284 175.565 14.7905 175.266 15.12C174.783 15.652 174.224 16.1068 173.59 16.4843C173.554 16.506 173.517 16.5275 173.48 16.5487L173.478 16.5496C172.486 17.1116 171.391 17.3912 170.2 17.3912C169.231 17.3912 168.314 17.1952 167.453 16.8022L167.451 16.801C166.614 16.4104 165.878 15.8798 165.246 15.21C164.613 14.5401 164.112 13.7597 163.742 12.8716C163.369 11.9767 163.184 11.0185 163.184 10C163.184 8.9815 163.369 8.02332 163.742 7.1284C164.112 6.24026 164.613 5.4599 165.246 4.78998C165.877 4.12124 166.612 3.59114 167.447 3.20073L167.451 3.19885L167.453 3.19773C168.314 2.80481 169.231 2.6088 170.2 2.6088C171.391 2.6088 172.486 2.8976 173.478 3.47716L173.48 3.47817C174.158 3.85534 174.753 4.32273 175.263 4.88029C175.565 5.20954 176.038 5.27143 176.348 5.03995L177.05 4.51499C177.364 4.28035 177.407 3.8592 177.175 3.60066C176.423 2.76592 175.534 2.07791 174.505 1.53653L174.504 1.53571C173.211 0.846496 171.779 0.5 170.2 0.5Z" fill="white"/>
<path fill-rule="evenodd" clip-rule="evenodd" d="M184.243 1.09998C184.051 1.09998 183.896 1.25533 183.896 1.44697V12.1498C183.883 12.2603 183.883 12.343 183.883 12.3718C183.883 14.0067 184.521 15.6966 185.8 16.9368C187.043 18.1656 188.955 18.9961 191.415 19.0997C191.418 19.0998 191.421 19.0999 191.424 19.0999L191.43 19.1H196.389C196.58 19.1 196.735 18.9446 196.735 18.753V17.2552C196.735 17.0636 196.58 16.9082 196.389 16.9082H191.486C189.533 16.8342 188.2 16.2301 187.318 15.3712C186.469 14.5342 186.075 13.4925 186.075 12.3718V1.44697C186.075 1.25533 185.92 1.09998 185.728 1.09998H184.243Z" fill="white"/>
<path fill-rule="evenodd" clip-rule="evenodd" d="M235.88 1.09998C235.742 1.09998 235.63 1.21218 235.63 1.35059V18.8494C235.63 18.9878 235.742 19.1 235.88 19.1H237.395C237.533 19.1 237.646 18.9878 237.646 18.8494V13.7083C238.477 13.6229 239.522 13.3898 240.457 13.0165L247.799 19.0431C247.844 19.0799 247.9 19.1 247.958 19.1H250.35C250.456 19.1 250.551 19.0335 250.586 18.9338C250.622 18.8342 250.591 18.7229 250.509 18.6557L242.456 12.0405C243.05 11.6803 243.836 11.0923 244.59 10.3918C246.575 8.53719 248.402 5.74881 249.862 1.43089C249.888 1.3544 249.876 1.27012 249.829 1.2045C249.782 1.13889 249.706 1.09998 249.625 1.09998H248.021C247.915 1.09998 247.82 1.16723 247.785 1.26769C246.497 4.94285 244.925 7.32291 243.218 8.91783C241.305 10.7126 239.277 11.4832 237.646 11.675V1.35059C237.646 1.21218 237.533 1.09998 237.395 1.09998H235.88Z" fill="white"/>
</svg>
