<svg width="25" height="24" viewBox="0 0 25 24" fill="none" xmlns="http://www.w3.org/2000/svg">
<path fill-rule="evenodd" clip-rule="evenodd" d="M24.0701 4.79453C24.0902 4.79613 24.109 4.80492 24.123 4.81927C24.1371 4.83361 24.1454 4.85254 24.1464 4.87251V4.88588C24.1711 5.10868 24.456 7.5929 21.8668 9.97686C20.0001 11.7593 16.3047 12.4121 16.2576 12.4121C16.2378 12.4104 16.2192 12.4015 16.2056 12.3872C16.1919 12.3728 16.1841 12.3539 16.1836 12.3341C16.1836 12.2962 15.6227 10.4002 12.0373 10.4002C8.45187 10.4002 7.8932 12.3341 7.8932 12.3341C7.89224 12.3537 7.88426 12.3724 7.87068 12.3866C7.8571 12.4009 7.83883 12.41 7.81916 12.4121C7.78101 12.4121 4.08568 11.7437 2.20996 9.97686C-0.289492 7.59513 -5.76343e-05 5.10645 0.0223791 4.88588V4.87251C0.0234037 4.85254 0.0317071 4.83361 0.045742 4.81927C0.0597769 4.80492 0.078586 4.79613 0.0986641 4.79453C0.134563 4.79453 0.172705 4.79453 0.172705 4.83241C0.172705 4.83241 0.695482 5.72361 2.30195 5.72361C2.376 5.72361 2.45901 5.71247 2.54427 5.70356C2.62465 5.69282 2.70553 5.68612 2.78659 5.6835C4.4671 5.52977 5.66298 4.67868 6.18576 3.2082C6.74444 1.62409 7.00694 1.08269 8.0884 0.463304C8.73713 0.14233 9.4549 -0.0167377 10.1795 -0.000119668C10.3299 -0.00110076 10.4801 0.0115773 10.6282 0.0377563C10.6569 0.0420745 10.6831 0.0562722 10.7023 0.0778603V0.153612C10.7023 0.153612 10.2176 1.11388 10.4779 2.04964C10.6664 2.66679 11.1892 3.32628 12.0844 3.32628C12.9796 3.32628 13.5024 2.67348 13.6864 2.04964C13.9893 1.11388 13.462 0.153612 13.462 0.153612V0.0778603C13.4812 0.0562722 13.5074 0.0420745 13.536 0.0377563C13.536 -0.000119668 13.7223 -0.000119668 13.9848 -0.000119668C14.7101 -0.02425 15.4297 0.135224 16.0759 0.463304C17.1573 1.1317 17.4221 1.62409 17.9808 3.2082C18.5035 4.6408 19.6972 5.52977 21.3777 5.6835C21.5372 5.71525 21.6998 5.7287 21.8623 5.72361C23.4329 5.72361 23.9916 4.83241 23.9916 4.83241C24.0073 4.79453 24.0342 4.79453 24.0701 4.79453ZM20.2559 15.9167C20.5386 15.9659 20.8075 16.0745 21.0447 16.2351C21.2819 16.3957 21.4818 16.6046 21.6312 16.848C21.9655 17.3694 22.0418 18.0021 21.8175 18.7841C21.4472 20.1209 19.9978 20.6089 19.1049 20.6089C19.0453 20.607 18.986 20.6003 18.9276 20.5888C18.8878 20.58 18.8472 20.5748 18.8064 20.5732C17.9701 20.3319 17.1795 19.9555 16.4663 19.4592L16.4102 19.4258C15.856 19.0782 15.6384 18.9401 15.313 19.0136C15.1449 19.0623 14.992 19.1527 14.8688 19.2763C14.7455 19.3998 14.656 19.5525 14.6085 19.7199C14.3595 20.2368 14.3146 20.9832 14.5367 21.3887C14.9092 22.135 15.69 22.2799 16.2105 21.763C16.5448 21.4265 16.4349 20.9052 16.1365 20.571C16.0035 20.4298 15.8526 20.3062 15.6877 20.2034C15.5284 20.0964 15.4118 20.0162 15.432 19.936C15.506 19.6018 16.8073 20.0118 17.1798 20.3816C17.9494 21.1302 18.1064 21.8343 17.5859 22.77C17.2134 23.4785 16.2845 23.962 15.2435 23.962C14.7451 23.9911 14.2504 23.8607 13.8322 23.5899C12.679 22.8079 12.1584 21.6894 12.2616 20.2011C12.3005 19.7672 12.4773 19.3568 12.7665 19.0292L12.7822 19.0092C13.0133 18.7151 13.1995 18.4499 13.1614 18.0467C13.1255 17.5632 12.827 17.3025 12.2639 17.3025H12.0395C11.8533 17.3382 11.7411 17.5632 11.703 18.0467C11.6814 18.4337 11.6896 18.8217 11.7276 19.2075L11.7411 19.4303C11.7613 19.5662 11.7703 19.7021 11.7792 19.8424C11.7882 19.9828 11.7972 20.1076 11.8151 20.2502C11.9273 21.7028 11.4068 22.8213 10.2446 23.6389C9.81764 23.8899 9.3294 24.0194 8.8333 24.0132C7.83037 24.0132 6.90149 23.5676 6.4909 22.8213C5.97037 21.89 6.23063 20.8161 6.90149 20.3259C7.20708 20.0763 7.57013 19.9056 7.95826 19.8291H8.05025C8.21018 19.8076 8.37288 19.8348 8.51694 19.907C8.70317 19.9806 8.77721 20.2056 8.40476 20.2412C8.29257 20.2412 7.81018 20.2791 7.6621 20.9876C7.62907 21.1293 7.62949 21.2766 7.66333 21.418C7.69717 21.5595 7.7635 21.6912 7.85715 21.803C7.9508 21.9148 8.06921 22.0035 8.20313 22.0623C8.33706 22.121 8.48286 22.1482 8.62912 22.1417C8.99933 22.1417 9.37178 21.9925 9.52659 21.3953C9.61957 21.0298 9.61957 20.6469 9.52659 20.2813C9.47766 19.9116 9.35075 19.5563 9.15414 19.2386C9.11077 19.184 9.05384 19.1415 8.98893 19.1154C8.92403 19.0892 8.85338 19.0802 8.78394 19.0894C8.55957 19.0894 8.22526 19.1629 7.63069 19.535C6.66591 20.1677 5.88585 20.5391 5.29053 20.649C5.19492 20.6826 5.09317 20.6955 4.99212 20.6868C4.09465 20.6868 2.65197 20.2034 2.27952 18.8621C2.18404 18.5596 2.15466 18.2404 2.19335 17.9257C2.23204 17.611 2.33791 17.3082 2.50389 17.0374C2.66954 16.7666 2.89085 16.5336 3.15336 16.3535C3.41587 16.1735 3.71369 16.0504 4.02734 15.9925C4.14914 15.963 4.27457 15.951 4.39979 15.9568C4.58363 15.9521 4.7664 15.9859 4.93614 16.0562C5.10588 16.1265 5.25876 16.2315 5.38477 16.3645C5.49127 16.4645 5.5715 16.5889 5.61843 16.7268C5.66536 16.8646 5.67758 17.0118 5.65401 17.1555C5.65361 17.3236 5.59393 17.4863 5.48532 17.6154C5.37671 17.7444 5.22602 17.8315 5.05943 17.8617C5.03501 17.8667 5.00982 17.8667 4.98539 17.8617C4.97163 17.8545 4.95944 17.8447 4.94949 17.8328C4.87321 17.757 4.91135 17.6456 4.98539 17.5342C4.98539 17.5097 5.00334 17.483 5.01456 17.4562C5.05046 17.3604 5.0886 17.258 5.05943 17.1978C5.00511 17.1196 4.93329 17.055 4.84959 17.009C4.7659 16.963 4.67261 16.9369 4.57704 16.9327C4.47876 16.9416 4.38395 16.9733 4.30019 17.0251C4.21643 17.077 4.14604 17.1475 4.09465 17.2312C4.02086 17.3394 3.96956 17.4612 3.94375 17.5894C3.91794 17.7175 3.91813 17.8495 3.94433 17.9776C4.01152 18.2452 4.17011 18.4815 4.39306 18.646C4.49682 18.6974 4.61144 18.7233 4.72737 18.7218C5.22594 18.7099 5.70773 18.5406 6.10274 18.2383C6.12249 18.2205 6.14348 18.2041 6.16557 18.1893C6.20915 18.1589 6.2504 18.1254 6.28897 18.089C6.3473 18.0288 6.41686 17.9642 6.4909 17.8929C6.81392 17.6031 7.10636 17.2814 7.36369 16.9327C6.83356 16.5763 6.33649 16.1736 5.87838 15.7295C5.39374 15.2461 5.05943 14.9119 4.79917 14.6156C4.71839 14.5353 4.6466 14.4596 4.5748 14.3927C4.44259 14.2391 4.29188 14.1022 4.12606 13.985C3.89189 13.7975 3.60843 13.6808 3.30937 13.6486C3.24209 13.6483 3.1759 13.6655 3.11729 13.6983C3.05868 13.7311 3.00967 13.7785 2.97506 13.8358C2.71479 14.17 3.12314 14.5443 3.12314 14.5443C3.15904 14.5799 3.19718 14.6178 3.15904 14.6557C3.12314 14.7292 3.01096 14.7292 2.93467 14.7292C2.63851 14.7292 2.26157 14.5064 2.19201 13.9093C2.17259 13.7278 2.19236 13.5443 2.25001 13.371C2.30766 13.1978 2.40186 13.0387 2.52632 12.9044C2.66918 12.7405 2.84594 12.6091 3.04457 12.5191C3.24319 12.4292 3.45902 12.3828 3.67733 12.3831H3.82766C4.53217 12.4566 5.42515 12.9044 6.54026 13.6865C7.02422 14.0186 7.53884 14.3043 8.07718 14.5398V14.5019C8.06773 14.0964 8.02344 13.6924 7.9448 13.2943C7.9448 13.2609 7.93358 13.2297 7.9291 13.1985C7.92461 13.1674 7.91115 13.1651 7.91788 13.154C7.92499 13.1451 7.92894 13.1341 7.9291 13.1228C7.96499 13.0871 7.96499 13.0871 8.00314 13.0871C8.11871 13.0681 8.22608 13.0157 8.31186 12.9364C8.39764 12.8572 8.45804 12.7546 8.48553 12.6415C8.57528 12.4588 9.19902 11.1978 12.0754 11.1978C14.9518 11.1978 15.5778 12.4366 15.6653 12.6371V12.6505C15.6839 12.7555 15.7322 12.8531 15.8045 12.932C15.8768 13.0109 15.9701 13.0677 16.0736 13.0961C16.1477 13.0961 16.1477 13.1696 16.1477 13.2075C16.043 13.6476 15.968 14.0942 15.9233 14.5443H15.9592C16.1673 14.5884 16.3792 14.613 16.5919 14.6178C16.8881 14.6264 17.1817 14.5621 17.4468 14.4306C17.8192 14.2457 17.8192 13.8358 17.8192 13.4258C17.8192 13.1272 17.8192 12.8666 17.9673 12.6816C18.0978 12.5111 18.2681 12.3745 18.4635 12.2837C18.6589 12.1929 18.8736 12.1505 19.0891 12.1603C19.2404 12.1633 19.3909 12.1827 19.5379 12.2182L19.6164 12.2338C20.2469 12.421 20.8796 12.9423 20.6934 13.613C20.6637 13.7779 20.5772 13.9274 20.4487 14.036C20.3201 14.1445 20.1576 14.2053 19.9889 14.2078C19.9889 14.2078 19.7286 14.2078 19.6905 14.0964C19.6877 14.0762 19.6896 14.0556 19.6963 14.0363C19.7029 14.0169 19.714 13.9994 19.7286 13.985C19.8296 13.9366 19.9087 13.8522 19.9503 13.7487C19.9918 13.6452 19.9928 13.53 19.953 13.4258C19.9056 13.3637 19.8436 13.3142 19.7723 13.2815C19.7011 13.2489 19.6229 13.2342 19.5446 13.2386C19.475 13.2314 19.4046 13.2413 19.3397 13.2673C19.2748 13.2933 19.2172 13.3347 19.1722 13.3879C19.1146 13.4375 19.0732 13.5029 19.0532 13.5759C19.0332 13.6489 19.0356 13.7262 19.06 13.7979C19.3584 16.2932 17.8708 16.6653 17.5747 16.6943C17.2165 16.7383 16.8563 16.7636 16.4955 16.77C16.8353 17.2234 17.2512 17.6153 17.725 17.9286C17.8308 17.9941 17.9306 18.0687 18.0234 18.1514C18.4178 18.4532 18.8987 18.6226 19.3965 18.6349C19.513 18.637 19.6283 18.6118 19.7331 18.5613C19.9582 18.4125 20.1161 18.1824 20.173 17.9199C20.23 17.6574 20.1817 17.3831 20.0382 17.1555C19.8901 16.9327 19.7421 16.819 19.5895 16.819C19.5058 16.8292 19.4266 16.8626 19.3611 16.9154C19.2957 16.9682 19.2465 17.0383 19.2193 17.1176C19.1809 17.2387 19.1809 17.3686 19.2193 17.4897C19.2181 17.5082 19.2181 17.5268 19.2193 17.5454C19.2274 17.5745 19.2278 17.6052 19.2203 17.6345C19.2128 17.6638 19.1978 17.6907 19.1766 17.7125C19.1408 17.7503 19.1026 17.7503 19.0286 17.7503C18.8808 17.7316 18.7443 17.6617 18.6434 17.5528C18.5424 17.444 18.4833 17.3033 18.4766 17.1555C18.4654 17.0145 18.4827 16.8727 18.5274 16.7384C18.5721 16.6041 18.6433 16.48 18.7369 16.3734C18.8853 16.2182 19.0642 16.095 19.2626 16.0115C19.461 15.9279 19.6746 15.8858 19.8901 15.8877C20.0143 15.8766 20.1395 15.8864 20.2603 15.9167H20.2559Z" fill="white"/>
</svg>
